<?xml version="1.0" encoding="us-ascii" standalone="no"?><svg xmlns="http://www.w3.org/2000/svg" xmlns:xlink="http://www.w3.org/1999/xlink" contentStyleType="text/css" height="687px" preserveAspectRatio="none" style="width:1234px;height:687px;background:#FFFFFF;" version="1.1" viewBox="0 0 1234 687" width="1234.5px" zoomAndPan="magnify"><defs/><g><!--class User--><g id="elem_User"><rect codeLine="10" fill="#F1F1F1" height="149.2266" id="User" rx="3.75" ry="3.75" style="stroke:#181818;stroke-width:0.75;" width="118.5" x="226.5" y="527.415"/><text fill="#000000" font-family="sans-serif" font-size="21" lengthAdjust="spacing" textLength="48" x="261.75" y="554.4077">User</text><line style="stroke:#181818;stroke-width:0.75;" x1="228" x2="343.5" y1="566.8603" y2="566.8603"/><text fill="#000000" font-family="sans-serif" font-size="21" lengthAdjust="spacing" textLength="96" x="235.5" y="592.353">firstname</text><text fill="#000000" font-family="sans-serif" font-size="21" lengthAdjust="spacing" textLength="94.5" x="235.5" y="616.7983">lastname</text><text fill="#000000" font-family="sans-serif" font-size="21" lengthAdjust="spacing" text-decoration="underline" textLength="54" x="235.5" y="641.2436">email</text><text fill="#000000" font-family="sans-serif" font-size="21" lengthAdjust="spacing" textLength="100.5" x="235.5" y="665.6889">password</text></g><!--class Podcast--><g id="elem_Podcast"><rect codeLine="17" fill="#F1F1F1" height="198.1172" id="Podcast" rx="3.75" ry="3.75" style="stroke:#181818;stroke-width:0.75;" width="184.5" x="572.25" y="10.5"/><text fill="#000000" font-family="sans-serif" font-size="21" lengthAdjust="spacing" textLength="84" x="622.5" y="37.4927">Podcast</text><line style="stroke:#181818;stroke-width:0.75;" x1="573.75" x2="755.25" y1="49.9453" y2="49.9453"/><text fill="#000000" font-family="sans-serif" font-size="21" lengthAdjust="spacing" textLength="37.5" x="581.25" y="75.438">title</text><text fill="#000000" font-family="sans-serif" font-size="21" lengthAdjust="spacing" textLength="115.5" x="581.25" y="99.8833">description</text><text fill="#000000" font-family="sans-serif" font-size="21" lengthAdjust="spacing" text-decoration="underline" textLength="88.5" x="581.25" y="124.3286">rss_feed</text><text fill="#000000" font-family="sans-serif" font-size="21" lengthAdjust="spacing" textLength="63" x="581.25" y="148.7739">image</text><text fill="#000000" font-family="sans-serif" font-size="21" lengthAdjust="spacing" textLength="67.5" x="581.25" y="173.2192">author</text><text fill="#000000" font-family="sans-serif" font-size="21" lengthAdjust="spacing" textLength="166.5" x="581.25" y="197.6646">episodes_count</text></g><!--class Episode--><g id="elem_Episode"><rect codeLine="26" fill="#F1F1F1" height="173.6719" id="Episode" rx="3.75" ry="3.75" style="stroke:#181818;stroke-width:0.75;" width="138" x="382.5" y="22.725"/><text fill="#000000" font-family="sans-serif" font-size="21" lengthAdjust="spacing" textLength="84" x="409.5" y="49.7177">Episode</text><line style="stroke:#181818;stroke-width:0.75;" x1="384" x2="519" y1="62.1703" y2="62.1703"/><text fill="#000000" font-family="sans-serif" font-size="21" lengthAdjust="spacing" textLength="37.5" x="391.5" y="87.663">title</text><text fill="#000000" font-family="sans-serif" font-size="21" lengthAdjust="spacing" textLength="115.5" x="391.5" y="112.1083">description</text><text fill="#000000" font-family="sans-serif" font-size="21" lengthAdjust="spacing" textLength="85.5" x="391.5" y="136.5536">duration</text><text fill="#000000" font-family="sans-serif" font-size="21" lengthAdjust="spacing" textLength="120" x="391.5" y="160.9989">released_at</text><text fill="#000000" font-family="sans-serif" font-size="21" lengthAdjust="spacing" text-decoration="underline" textLength="93" x="391.5" y="185.4442">audio_url</text></g><!--class Listening--><g id="elem_Listening"><rect codeLine="34" fill="#F1F1F1" height="100.3359" id="Listening" rx="3.75" ry="3.75" style="stroke:#181818;stroke-width:0.75;" width="175.5" x="83.25" y="326.85"/><text fill="#000000" font-family="sans-serif" font-size="21" lengthAdjust="spacing" textLength="93" x="124.5" y="353.8427">Listening</text><line style="stroke:#181818;stroke-width:0.75;" x1="84.75" x2="257.25" y1="366.2953" y2="366.2953"/><text fill="#000000" font-family="sans-serif" font-size="21" lengthAdjust="spacing" textLength="124.5" x="92.25" y="391.788">progression</text><text fill="#000000" font-family="sans-serif" font-size="21" lengthAdjust="spacing" textLength="157.5" x="92.25" y="416.2333">listening_count</text></g><!--class Category--><g id="elem_Category"><rect codeLine="39" fill="#F1F1F1" height="75.8906" id="Category" rx="3.75" ry="3.75" style="stroke:#181818;stroke-width:0.75;" width="102" x="931.5" y="71.61"/><text fill="#000000" font-family="sans-serif" font-size="21" lengthAdjust="spacing" textLength="93" x="936" y="98.6027">Category</text><line style="stroke:#181818;stroke-width:0.75;" x1="933" x2="1032" y1="111.0553" y2="111.0553"/><text fill="#000000" font-family="sans-serif" font-size="21" lengthAdjust="spacing" text-decoration="underline" textLength="58.5" x="940.5" y="136.548">name</text></g><!--class Playlist--><g id="elem_Playlist"><rect codeLine="43" fill="#F1F1F1" height="75.8906" id="Playlist" rx="3.75" ry="3.75" style="stroke:#181818;stroke-width:0.75;" width="133.5" x="534.75" y="563.715"/><text fill="#000000" font-family="sans-serif" font-size="21" lengthAdjust="spacing" textLength="69" x="567" y="590.7077">Playlist</text><line style="stroke:#181818;stroke-width:0.75;" x1="536.25" x2="666.75" y1="603.1603" y2="603.1603"/><text fill="#000000" font-family="sans-serif" font-size="21" lengthAdjust="spacing" textLength="115.5" x="543.75" y="628.653">description</text></g><!--class QueuedEpisode--><g id="elem_QueuedEpisode"><rect codeLine="48" fill="#F1F1F1" height="75.8906" id="QueuedEpisode" rx="3.75" ry="3.75" style="stroke:#181818;stroke-width:0.75;" width="177" x="742.5" y="339.075"/><text fill="#000000" font-family="sans-serif" font-size="21" lengthAdjust="spacing" textLength="168" x="747" y="366.0677">QueuedEpisode</text><line style="stroke:#181818;stroke-width:0.75;" x1="744" x2="918" y1="378.5203" y2="378.5203"/><text fill="#000000" font-family="sans-serif" font-size="21" lengthAdjust="spacing" textLength="55.5" x="751.5" y="404.013">index</text></g><ellipse cx="316.5" cy="377.01" fill="#181818" rx="3" ry="3" style="stroke:#181818;stroke-width:1.5;"/><g id="elem_N1"><path d="M972,324.12 L972,371.01 L920.175,377.01 L972,383.01 L972,429.9169 A0,0 0 0 0 972,429.9169 L1224,429.9169 A0,0 0 0 0 1224,429.9169 L1224,339.12 L1209,324.12 L972,324.12 A0,0 0 0 0 972,324.12 " fill="#FEFFDD" style="stroke:#181818;stroke-width:0.75;"/><path d="M1209,324.12 L1209,339.12 L1224,339.12 L1209,324.12 " fill="#FEFFDD" style="stroke:#181818;stroke-width:0.75;"/><text fill="#000000" font-family="sans-serif" font-size="19.5" lengthAdjust="spacing" textLength="210" x="981" y="349.7203">CI: Users cannot have</text><text fill="#000000" font-family="sans-serif" font-size="19.5" lengthAdjust="spacing" textLength="150" x="981" y="372.4196">a given episode</text><text fill="#000000" font-family="sans-serif" font-size="19.5" lengthAdjust="spacing" textLength="214.5" x="981" y="395.1188">more than one time in</text><text fill="#000000" font-family="sans-serif" font-size="19.5" lengthAdjust="spacing" textLength="201" x="981" y="417.818">their listening queue.</text></g><g id="elem_N2"><path d="M720.75,560.115 L720.75,643.2127 A0,0 0 0 0 720.75,643.2127 L1043.25,643.2127 A0,0 0 0 0 1043.25,643.2127 L1043.25,575.115 L1028.25,560.115 L878.655,560.115 L839.535,415.62 L866.655,560.115 L720.75,560.115 A0,0 0 0 0 720.75,560.115 " fill="#FEFFDD" style="stroke:#181818;stroke-width:0.75;"/><path d="M1028.25,560.115 L1028.25,575.115 L1043.25,575.115 L1028.25,560.115 " fill="#FEFFDD" style="stroke:#181818;stroke-width:0.75;"/><text fill="#000000" font-family="sans-serif" font-size="19.5" lengthAdjust="spacing" textLength="189" x="729.75" y="585.7153">CI: The combination</text><text fill="#000000" font-family="sans-serif" font-size="19.5" lengthAdjust="spacing" textLength="246" x="729.75" y="608.4146">of QueuedEpisode's index</text><text fill="#000000" font-family="sans-serif" font-size="19.5" lengthAdjust="spacing" textLength="291" x="729.75" y="631.1138">and associated user is unique.</text></g><ellipse cx="426" cy="377.01" fill="#181818" rx="3" ry="3" style="stroke:#181818;stroke-width:1.5;"/><g id="elem_N3"><path d="M9,68.01 L9,151.1077 A0,0 0 0 0 9,151.1077 L163.725,151.1077 L170.715,326.16 L175.725,151.1077 L330,151.1077 A0,0 0 0 0 330,151.1077 L330,83.01 L315,68.01 L9,68.01 A0,0 0 0 0 9,68.01 " fill="#FEFFDD" style="stroke:#181818;stroke-width:0.75;"/><path d="M315,68.01 L315,83.01 L330,83.01 L315,68.01 " fill="#FEFFDD" style="stroke:#181818;stroke-width:0.75;"/><text fill="#000000" font-family="sans-serif" font-size="19.5" lengthAdjust="spacing" textLength="214.5" x="18" y="93.6103">CI: There's at max one</text><text fill="#000000" font-family="sans-serif" font-size="19.5" lengthAdjust="spacing" textLength="201" x="18" y="116.3096">listening entry linking</text><text fill="#000000" font-family="sans-serif" font-size="19.5" lengthAdjust="spacing" textLength="289.5" x="18" y="139.0088">a podcast episode and a user.</text></g><!--link User to Playlist--><g id="link_User_Playlist"><path codeLine="53" d="M344.67,585.33 C389.595,574.845 453.27,564.675 508.875,573.165 C517.23,574.44 525.87,576.345 534.36,578.565 " fill="none" id="User-Playlist" style="stroke:#181818;stroke-width:1.5;"/><text fill="#000000" font-family="sans-serif" font-size="19.5" lengthAdjust="spacing" textLength="61.5" x="445.875" y="564.2653">create</text><text fill="#000000" font-family="sans-serif" font-size="19.5" lengthAdjust="spacing" textLength="12" x="357.1455" y="568.0503">1</text><text fill="#000000" font-family="sans-serif" font-size="19.5" lengthAdjust="spacing" textLength="10.5" x="512.3228" y="568.7074">*</text></g><!--link Episode to Podcast--><g id="link_Episode_Podcast"><path codeLine="54" d="M520.98,109.56 C531.075,109.56 541.17,109.56 551.265,109.56 " fill="none" id="Episode-to-Podcast" style="stroke:#181818;stroke-width:1.5;"/><polygon fill="none" points="570.495,109.56,561.495,103.56,552.495,109.56,561.495,115.56,570.495,109.56" style="stroke:#181818;stroke-width:1.5;"/><text fill="#000000" font-family="sans-serif" font-size="19.5" lengthAdjust="spacing" textLength="10.5" x="532.423" y="103.4528">*</text><text fill="#000000" font-family="sans-serif" font-size="19.5" lengthAdjust="spacing" textLength="12" x="547.9897" y="103.8016">1</text></g><!--link Podcast to Category--><g id="link_Podcast_Category"><path codeLine="56" d="M757.335,109.56 C813.975,109.56 884.265,109.56 931.095,109.56 " fill="none" id="Podcast-Category" style="stroke:#181818;stroke-width:1.5;"/><polygon fill="#000000" points="782.625,92.4096,796.1926,96.818,796.1926,88.0012,782.625,92.4096" style="stroke:#000000;stroke-width:1.5;"/><text fill="#000000" font-family="sans-serif" font-size="19.5" lengthAdjust="spacing" textLength="100.5" x="803.625" y="99.1603">categorize</text><text fill="#000000" font-family="sans-serif" font-size="19.5" lengthAdjust="spacing" textLength="10.5" x="768.6761" y="103.8712">*</text><text fill="#000000" font-family="sans-serif" font-size="19.5" lengthAdjust="spacing" textLength="10.5" x="908.9099" y="102.8615">*</text></g><!--link Episode to apoint14--><g id="link_Episode_apoint14"><path d="M384.135,196.785 C371.94,214.875 360.195,234.345 351,253.62 C329.04,299.67 318.555,362.37 316.77,373.725 " fill="none" id="Episode-apoint14" style="stroke:#181818;stroke-width:1.5;"/><polygon fill="#000000" points="355.8314,273.4788,364.7788,262.3676,356.539,259.2305,355.8314,273.4788" style="stroke:#000000;stroke-width:1.5;"/><text fill="#000000" font-family="sans-serif" font-size="19.5" lengthAdjust="spacing" textLength="51" x="372" y="273.2203">listen</text><text fill="#000000" font-family="sans-serif" font-size="19.5" lengthAdjust="spacing" textLength="10.5" x="365.2389" y="226.2829">*</text></g><!--link apoint14 to User--><g id="link_apoint14_User"><path d="M316.23,380.43 C314.4,393.345 303.66,468.84 295.29,527.79 " fill="none" id="apoint14-User" style="stroke:#181818;stroke-width:1.5;"/><text fill="#000000" font-family="sans-serif" font-size="19.5" lengthAdjust="spacing" textLength="10.5" x="285.4201" y="510.8489">*</text></g><!--link Listening to apoint14--><g id="link_Listening_apoint14"><path d="M259.095,377.01 C277.035,377.01 294.975,377.01 312.915,377.01 " fill="none" id="Listening-apoint14" style="stroke:#181818;stroke-width:1.5;stroke-dasharray:7.0,7.0;"/></g><!--link Playlist to Episode--><g id="link_Playlist_Episode"><path codeLine="59" d="M594.06,563.19 C580.74,499.215 550.68,364.11 513,253.62 C506.655,234.99 498.915,215.4 491.115,196.905 " fill="none" id="Playlist-Episode" style="stroke:#181818;stroke-width:1.5;"/><polygon fill="#000000" points="567.9707,369.8894,567.3977,384.1437,575.8857,381.7581,567.9707,369.8894" style="stroke:#000000;stroke-width:1.5;"/><text fill="#000000" font-family="sans-serif" font-size="19.5" lengthAdjust="spacing" textLength="27" x="583.5" y="383.8603">list</text><text fill="#000000" font-family="sans-serif" font-size="19.5" lengthAdjust="spacing" textLength="10.5" x="580.6254" y="547.3156">*</text><text fill="#000000" font-family="sans-serif" font-size="19.5" lengthAdjust="spacing" textLength="10.5" x="484.5885" y="226.4168">*</text></g><!--link Episode to apoint25--><g id="link_Episode_apoint25"><path d="M443.22,196.92 C436.41,267.51 427.665,358.275 426.21,373.35 " fill="none" id="Episode-apoint25" style="stroke:#181818;stroke-width:1.5;"/><text fill="#000000" font-family="sans-serif" font-size="19.5" lengthAdjust="spacing" textLength="60" x="439.5" y="273.2203">queue</text><text fill="#000000" font-family="sans-serif" font-size="19.5" lengthAdjust="spacing" textLength="10.5" x="431.1556" y="226.4335">*</text></g><!--link apoint25 to User--><g id="link_apoint25_User"><path d="M424.785,380.43 C416.565,393.345 368.535,468.84 331.05,527.79 " fill="none" id="apoint25-User" style="stroke:#181818;stroke-width:1.5;"/><text fill="#000000" font-family="sans-serif" font-size="19.5" lengthAdjust="spacing" textLength="10.5" x="326.4323" y="510.8489">*</text></g><!--link apoint25 to QueuedEpisode--><g id="link_apoint25_QueuedEpisode"><path d="M427.95,374.175 C438.36,359.265 489.375,289.785 551.25,266.37 C635.025,234.66 732.105,295.095 787.065,338.445 " fill="none" id="apoint25-QueuedEpisode" style="stroke:#181818;stroke-width:1.5;stroke-dasharray:7.0,7.0;"/></g><rect fill="#FFFFFF" height="25.6992" style="stroke:#000000;stroke-width:0.75;" width="61.5" x="344.67" y="572.4804"/><text fill="#000000" font-family="sans-serif" font-size="19.5" lengthAdjust="spacing" textLength="55.5" x="347.67" y="592.0807">name</text><!--SRC=[TLHDJnin43t7lsAKIu12L8fwYQfM5UM0XA0VzDHKaLbFab6zzZAsWHJntplsxYQRghtPdZTlthmPELJQ8fnEtwer6OIAkBAe9X1-aMiqwneiEOoR1i5pNFj_XnflD_cYTh4bFPqNiYjzX_Rc0TdgfY6tWiXf2Aoi3k5ZZ4ntAU9bvTqt-etmkXLKenGrGQd9XOiK2OF2VDZ0zu0Cpsgq90xHwHhLI9YwqtE8EbBr0bXhichKI8r7pqQzg3x_ipULu3E5tANfaS5GCJMHl1imS0YB9Q9H8whrIc0wYIHM8smeUCbPL3wv20FgYpRoFsgJMBSdHeiwe5deEAYeao6_I6m7b5SK8hfidv0sx5UC8HGEsqTQ7OESSnrnvNcJKxRanP-12rPlCaF6J9AZ-uGGC5ci1G0XCLWDbQ_lo6bfofNyLs819fxkzxKZ_P8meHcuGCxWKmPClg8jlOSrDK6L6Vx8b3zXV3e-6H-DjufcK35A1weVb030drXSneBhwDNazkRJpGmqity4GunLvWSA8flp3JxiA8xQ6hqpKgCzvOrxfth56LPmMTyCMeVXlTeDOGe77VYuW0xLriY-HXTlqoLvIBxZlizMIMdbV9JO-UMi14IyTl84Q_s0C7SQLlGW6hgTavVQCq9SQmVUoO5g17Bo7jT83DkbQ0jCnw03N9yEgjokiPzhyMlk_79_S9C0PMwvl3D247n5OfU1bCSc1hVxqf6_KVjZd-PwVprDC-mWDtZS-tCem3tKlaRECdI4MZ-LHkTkrvficoot_3lobwooHqqtvjwb8hkexJIUgUkph68xo3y0]--></g></svg>