<?xml version="1.0" encoding="us-ascii" standalone="no"?><svg xmlns="http://www.w3.org/2000/svg" xmlns:xlink="http://www.w3.org/1999/xlink" contentStyleType="text/css" height="1417.5px" preserveAspectRatio="none" style="width:1450px;height:1417px;background:#FFFFFF;" version="1.1" viewBox="0 0 1450 1417" width="1450.5px" zoomAndPan="magnify"><defs/><g><!--class User--><g id="elem_User"><rect codeLine="11" fill="#F1F1F1" height="173.6719" id="User" rx="3.75" ry="3.75" style="stroke:#181818;stroke-width:0.75;" width="192" x="393.75" y="940.8"/><text fill="#000000" font-family="sans-serif" font-size="21" lengthAdjust="spacing" textLength="48" x="465.75" y="967.7927">User</text><line style="stroke:#181818;stroke-width:0.75;" x1="395.25" x2="584.25" y1="980.2453" y2="980.2453"/><text fill="#000000" font-family="sans-serif" font-size="21" lengthAdjust="spacing" textLength="96" x="402.75" y="1005.738">firstname</text><text fill="#000000" font-family="sans-serif" font-size="21" lengthAdjust="spacing" textLength="94.5" x="402.75" y="1030.1833">lastname</text><text fill="#000000" font-family="sans-serif" font-size="21" lengthAdjust="spacing" text-decoration="underline" textLength="54" x="402.75" y="1054.6286">email</text><text fill="#000000" font-family="sans-serif" font-size="21" lengthAdjust="spacing" textLength="100.5" x="402.75" y="1079.0739">password</text><text fill="#000000" font-family="sans-serif" font-size="21" lengthAdjust="spacing" textLength="174" x="402.75" y="1103.5192">registration_date</text></g><!--class Podcast--><g id="elem_Podcast"><rect codeLine="19" fill="#F1F1F1" height="198.1172" id="Podcast" rx="3.75" ry="3.75" style="stroke:#181818;stroke-width:0.75;" width="184.5" x="729.75" y="423.885"/><text fill="#000000" font-family="sans-serif" font-size="21" lengthAdjust="spacing" textLength="84" x="780" y="450.8777">Podcast</text><line style="stroke:#181818;stroke-width:0.75;" x1="731.25" x2="912.75" y1="463.3303" y2="463.3303"/><text fill="#000000" font-family="sans-serif" font-size="21" lengthAdjust="spacing" textLength="37.5" x="738.75" y="488.823">title</text><text fill="#000000" font-family="sans-serif" font-size="21" lengthAdjust="spacing" textLength="115.5" x="738.75" y="513.2683">description</text><text fill="#000000" font-family="sans-serif" font-size="21" lengthAdjust="spacing" text-decoration="underline" textLength="88.5" x="738.75" y="537.7136">rss_feed</text><text fill="#000000" font-family="sans-serif" font-size="21" lengthAdjust="spacing" textLength="63" x="738.75" y="562.1589">image</text><text fill="#000000" font-family="sans-serif" font-size="21" lengthAdjust="spacing" textLength="67.5" x="738.75" y="586.6042">author</text><text fill="#000000" font-family="sans-serif" font-size="21" lengthAdjust="spacing" textLength="166.5" x="738.75" y="611.0496">episodes_count</text></g><!--class Episode--><g id="elem_Episode"><rect codeLine="28" fill="#F1F1F1" height="173.6719" id="Episode" rx="3.75" ry="3.75" style="stroke:#181818;stroke-width:0.75;" width="138" x="540" y="436.11"/><text fill="#000000" font-family="sans-serif" font-size="21" lengthAdjust="spacing" textLength="84" x="567" y="463.1027">Episode</text><line style="stroke:#181818;stroke-width:0.75;" x1="541.5" x2="676.5" y1="475.5553" y2="475.5553"/><text fill="#000000" font-family="sans-serif" font-size="21" lengthAdjust="spacing" textLength="37.5" x="549" y="501.048">title</text><text fill="#000000" font-family="sans-serif" font-size="21" lengthAdjust="spacing" textLength="115.5" x="549" y="525.4933">description</text><text fill="#000000" font-family="sans-serif" font-size="21" lengthAdjust="spacing" textLength="85.5" x="549" y="549.9386">duration</text><text fill="#000000" font-family="sans-serif" font-size="21" lengthAdjust="spacing" textLength="120" x="549" y="574.3839">released_at</text><text fill="#000000" font-family="sans-serif" font-size="21" lengthAdjust="spacing" text-decoration="underline" textLength="93" x="549" y="598.8292">audio_url</text></g><!--class Listening--><g id="elem_Listening"><rect codeLine="36" fill="#F1F1F1" height="100.3359" id="Listening" rx="3.75" ry="3.75" style="stroke:#181818;stroke-width:0.75;" width="175.5" x="137.25" y="740.235"/><text fill="#000000" font-family="sans-serif" font-size="21" lengthAdjust="spacing" textLength="93" x="178.5" y="767.2277">Listening</text><line style="stroke:#181818;stroke-width:0.75;" x1="138.75" x2="311.25" y1="779.6803" y2="779.6803"/><text fill="#000000" font-family="sans-serif" font-size="21" lengthAdjust="spacing" textLength="124.5" x="146.25" y="805.173">progression</text><text fill="#000000" font-family="sans-serif" font-size="21" lengthAdjust="spacing" textLength="157.5" x="146.25" y="829.6183">listening_count</text></g><!--class Category--><g id="elem_Category"><rect codeLine="41" fill="#F1F1F1" height="75.8906" id="Category" rx="3.75" ry="3.75" style="stroke:#181818;stroke-width:0.75;" width="102" x="1089" y="484.995"/><text fill="#000000" font-family="sans-serif" font-size="21" lengthAdjust="spacing" textLength="93" x="1093.5" y="511.9877">Category</text><line style="stroke:#181818;stroke-width:0.75;" x1="1090.5" x2="1189.5" y1="524.4403" y2="524.4403"/><text fill="#000000" font-family="sans-serif" font-size="21" lengthAdjust="spacing" text-decoration="underline" textLength="58.5" x="1098" y="549.933">name</text></g><!--class Playlist--><g id="elem_Playlist"><rect codeLine="45" fill="#F1F1F1" height="75.8906" id="Playlist" rx="3.75" ry="3.75" style="stroke:#181818;stroke-width:0.75;" width="133.5" x="774.75" y="989.1"/><text fill="#000000" font-family="sans-serif" font-size="21" lengthAdjust="spacing" textLength="69" x="807" y="1016.0927">Playlist</text><line style="stroke:#181818;stroke-width:0.75;" x1="776.25" x2="906.75" y1="1028.5453" y2="1028.5453"/><text fill="#000000" font-family="sans-serif" font-size="21" lengthAdjust="spacing" textLength="115.5" x="783.75" y="1054.038">description</text></g><!--class QueuedEpisode--><g id="elem_QueuedEpisode"><rect codeLine="50" fill="#F1F1F1" height="75.8906" id="QueuedEpisode" rx="3.75" ry="3.75" style="stroke:#181818;stroke-width:0.75;" width="177" x="958.5" y="752.46"/><text fill="#000000" font-family="sans-serif" font-size="21" lengthAdjust="spacing" textLength="168" x="963" y="779.4527">QueuedEpisode</text><line style="stroke:#181818;stroke-width:0.75;" x1="960" x2="1134" y1="791.9053" y2="791.9053"/><text fill="#000000" font-family="sans-serif" font-size="21" lengthAdjust="spacing" textLength="55.5" x="967.5" y="817.398">index</text></g><!--class Badge--><g id="elem_Badge"><rect codeLine="54" fill="#F1F1F1" height="173.6719" id="Badge" rx="3.75" ry="3.75" style="stroke:#181818;stroke-width:0.75;" width="178.5" x="399.75" y="1234.8"/><text fill="#000000" font-family="sans-serif" font-size="21" lengthAdjust="spacing" textLength="67.5" x="455.25" y="1261.7927">Badge</text><line style="stroke:#181818;stroke-width:0.75;" x1="401.25" x2="576.75" y1="1274.2453" y2="1274.2453"/><text fill="#000000" font-family="sans-serif" font-size="21" lengthAdjust="spacing" text-decoration="underline" textLength="58.5" x="408.75" y="1299.738">name</text><text fill="#000000" font-family="sans-serif" font-size="21" lengthAdjust="spacing" textLength="64.5" x="408.75" y="1324.1833">points</text><text fill="#000000" font-family="sans-serif" font-size="21" lengthAdjust="spacing" textLength="115.5" x="408.75" y="1348.6286">description</text><text fill="#000000" font-family="sans-serif" font-size="21" lengthAdjust="spacing" textLength="45" x="408.75" y="1373.0739">type</text><text fill="#000000" font-family="sans-serif" font-size="21" lengthAdjust="spacing" textLength="160.5" x="408.75" y="1397.5192">condition_value</text></g><!--class Comment--><g id="elem_Comment"><rect codeLine="62" fill="#F1F1F1" height="124.7813" id="Comment" rx="3.75" ry="3.75" style="stroke:#181818;stroke-width:0.75;" width="111" x="394.5" y="183.6"/><text fill="#000000" font-family="sans-serif" font-size="21" lengthAdjust="spacing" textLength="102" x="399" y="210.5927">Comment</text><line style="stroke:#181818;stroke-width:0.75;" x1="396" x2="504" y1="223.0453" y2="223.0453"/><text fill="#000000" font-family="sans-serif" font-size="21" lengthAdjust="spacing" textLength="48" x="403.5" y="248.538">note</text><text fill="#000000" font-family="sans-serif" font-size="21" lengthAdjust="spacing" textLength="81" x="403.5" y="272.9833">content</text><text fill="#000000" font-family="sans-serif" font-size="21" lengthAdjust="spacing" textLength="46.5" x="403.5" y="297.4286">date</text></g><ellipse cx="510" cy="790.395" fill="#181818" rx="3" ry="3" style="stroke:#181818;stroke-width:1.5;"/><g id="elem_GMN29"><path d="M1188,737.505 L1188,784.395 L1136.175,790.395 L1188,796.395 L1188,843.3019 A0,0 0 0 0 1188,843.3019 L1440,843.3019 A0,0 0 0 0 1440,843.3019 L1440,752.505 L1425,737.505 L1188,737.505 A0,0 0 0 0 1188,737.505 " fill="#FEFFDD" style="stroke:#181818;stroke-width:0.75;"/><path d="M1425,737.505 L1425,752.505 L1440,752.505 L1425,737.505 " fill="#FEFFDD" style="stroke:#181818;stroke-width:0.75;"/><text fill="#000000" font-family="sans-serif" font-size="19.5" lengthAdjust="spacing" textLength="210" x="1197" y="763.1053">CI: Users cannot have</text><text fill="#000000" font-family="sans-serif" font-size="19.5" lengthAdjust="spacing" textLength="150" x="1197" y="785.8046">a given episode</text><text fill="#000000" font-family="sans-serif" font-size="19.5" lengthAdjust="spacing" textLength="214.5" x="1197" y="808.5038">more than one time in</text><text fill="#000000" font-family="sans-serif" font-size="19.5" lengthAdjust="spacing" textLength="201" x="1197" y="831.203">their listening queue.</text></g><g id="elem_GMN32"><path d="M960.75,985.5 L960.75,1068.5977 A0,0 0 0 0 960.75,1068.5977 L1283.25,1068.5977 A0,0 0 0 0 1283.25,1068.5977 L1283.25,1000.5 L1268.25,985.5 L1114.905,985.5 L1058.88,828.915 L1102.905,985.5 L960.75,985.5 A0,0 0 0 0 960.75,985.5 " fill="#FEFFDD" style="stroke:#181818;stroke-width:0.75;"/><path d="M1268.25,985.5 L1268.25,1000.5 L1283.25,1000.5 L1268.25,985.5 " fill="#FEFFDD" style="stroke:#181818;stroke-width:0.75;"/><text fill="#000000" font-family="sans-serif" font-size="19.5" lengthAdjust="spacing" textLength="189" x="969.75" y="1011.1003">CI: The combination</text><text fill="#000000" font-family="sans-serif" font-size="19.5" lengthAdjust="spacing" textLength="246" x="969.75" y="1033.7996">of QueuedEpisode's index</text><text fill="#000000" font-family="sans-serif" font-size="19.5" lengthAdjust="spacing" textLength="291" x="969.75" y="1056.4988">and associated user is unique.</text></g><ellipse cx="624" cy="790.395" fill="#181818" rx="3" ry="3" style="stroke:#181818;stroke-width:1.5;"/><g id="elem_N3"><path d="M9,985.5 L9,1068.5977 A0,0 0 0 0 9,1068.5977 L330,1068.5977 A0,0 0 0 0 330,1068.5977 L330,1000.5 L315,985.5 L185.175,985.5 L213.36,840.885 L173.175,985.5 L9,985.5 A0,0 0 0 0 9,985.5 " fill="#FEFFDD" style="stroke:#181818;stroke-width:0.75;"/><path d="M315,985.5 L315,1000.5 L330,1000.5 L315,985.5 " fill="#FEFFDD" style="stroke:#181818;stroke-width:0.75;"/><text fill="#000000" font-family="sans-serif" font-size="19.5" lengthAdjust="spacing" textLength="214.5" x="18" y="1011.1003">CI: There's at max one</text><text fill="#000000" font-family="sans-serif" font-size="19.5" lengthAdjust="spacing" textLength="201" x="18" y="1033.7996">listening entry linking</text><text fill="#000000" font-family="sans-serif" font-size="19.5" lengthAdjust="spacing" textLength="289.5" x="18" y="1056.4988">a podcast episode and a user.</text></g><g id="elem_GMN43"><path d="M262.5,9 L262.5,92.0977 A0,0 0 0 0 262.5,92.0977 L444,92.0977 L450,182.97 L456,92.0977 L637.5,92.0977 A0,0 0 0 0 637.5,92.0977 L637.5,24 L622.5,9 L262.5,9 A0,0 0 0 0 262.5,9 " fill="#FEFFDD" style="stroke:#181818;stroke-width:0.75;"/><path d="M622.5,9 L622.5,24 L637.5,24 L622.5,9 " fill="#FEFFDD" style="stroke:#181818;stroke-width:0.75;"/><text fill="#000000" font-family="sans-serif" font-size="19.5" lengthAdjust="spacing" textLength="343.5" x="271.5" y="34.6003">CI: A comment cannot reply to itself</text><text fill="#000000" font-family="sans-serif" font-size="19.5" lengthAdjust="spacing" textLength="339" x="271.5" y="57.2996">and a can reply to other comments</text><text fill="#000000" font-family="sans-serif" font-size="19.5" lengthAdjust="spacing" textLength="246" x="271.5" y="79.9988">only in the same episode.</text></g><g id="elem_N5"><path d="M690,9 L690,92.0977 L882,92.0977 L882,24 L867,9 L690,9 " fill="#FEFFDD" style="stroke:#181818;stroke-width:0.75;"/><path d="M867,9 L867,24 L882,24 L867,9 " fill="#FEFFDD" style="stroke:#181818;stroke-width:1.5;"/><text fill="#000000" font-family="sans-serif" font-size="19.5" lengthAdjust="spacing" textLength="151.5" x="699" y="34.6003">Project: Podweb</text><text fill="#000000" font-family="sans-serif" font-size="19.5" lengthAdjust="spacing" textLength="96" x="699" y="57.2996">Version: 2</text><text fill="#000000" font-family="sans-serif" font-size="19.5" lengthAdjust="spacing" textLength="160.5" x="699" y="79.9988">Date:26.11.2023</text></g><!--link User to Playlist--><g id="link_User_Playlist"><path codeLine="69" d="M585.39,1004.715 C634.44,996.18 695.205,990.255 749.25,998.55 C757.41,999.795 765.84,1001.655 774.135,1003.815 " fill="none" id="User-Playlist" style="stroke:#181818;stroke-width:1.5;"/><text fill="#000000" font-family="sans-serif" font-size="19.5" lengthAdjust="spacing" textLength="61.5" x="686.25" y="989.6503">create</text><text fill="#000000" font-family="sans-serif" font-size="19.5" lengthAdjust="spacing" textLength="12" x="597.4808" y="991.1587">1</text><text fill="#000000" font-family="sans-serif" font-size="19.5" lengthAdjust="spacing" textLength="10.5" x="752.062" y="993.9359">*</text></g><!--link Episode to Podcast--><g id="link_Episode_Podcast"><path codeLine="70" d="M678.48,522.945 C688.575,522.945 698.67,522.945 708.765,522.945 " fill="none" id="Episode-to-Podcast" style="stroke:#181818;stroke-width:1.5;"/><polygon fill="none" points="727.995,522.945,718.995,516.945,709.995,522.945,718.995,528.945,727.995,522.945" style="stroke:#181818;stroke-width:1.5;"/><text fill="#000000" font-family="sans-serif" font-size="19.5" lengthAdjust="spacing" textLength="10.5" x="689.923" y="516.8378">*</text><text fill="#000000" font-family="sans-serif" font-size="19.5" lengthAdjust="spacing" textLength="12" x="705.4897" y="517.1866">1</text></g><!--link Podcast to Category--><g id="link_Podcast_Category"><path codeLine="72" d="M914.835,522.945 C971.475,522.945 1041.765,522.945 1088.595,522.945 " fill="none" id="Podcast-Category" style="stroke:#181818;stroke-width:1.5;"/><polygon fill="#000000" points="940.125,505.7946,953.6926,510.203,953.6926,501.3862,940.125,505.7946" style="stroke:#000000;stroke-width:1.5;"/><text fill="#000000" font-family="sans-serif" font-size="19.5" lengthAdjust="spacing" textLength="100.5" x="961.125" y="512.5453">categorize</text><text fill="#000000" font-family="sans-serif" font-size="19.5" lengthAdjust="spacing" textLength="10.5" x="926.1761" y="517.2562">*</text><text fill="#000000" font-family="sans-serif" font-size="19.5" lengthAdjust="spacing" textLength="10.5" x="1066.4099" y="516.2465">*</text></g><!--link Episode to apoint16--><g id="link_Episode_apoint16"><path d="M556.2,610.17 C546.66,628.425 537.645,647.955 531,667.005 C514.59,714.045 510.675,775.935 510.09,787.125 " fill="none" id="Episode-apoint16" style="stroke:#181818;stroke-width:1.5;"/><polygon fill="#000000" points="536.6088,687.1123,544.2959,675.0946,535.764,672.8714,536.6088,687.1123" style="stroke:#000000;stroke-width:1.5;"/><text fill="#000000" font-family="sans-serif" font-size="19.5" lengthAdjust="spacing" textLength="51" x="552" y="686.6053">listen</text><text fill="#000000" font-family="sans-serif" font-size="19.5" lengthAdjust="spacing" textLength="10.5" x="538.988" y="639.6679">*</text></g><!--link apoint16 to User--><g id="link_apoint16_User"><path d="M509.82,793.92 C508.65,806.94 502.035,880.455 496.575,941.22 " fill="none" id="apoint16-User" style="stroke:#181818;stroke-width:1.5;"/><text fill="#000000" font-family="sans-serif" font-size="19.5" lengthAdjust="spacing" textLength="10.5" x="486.2768" y="924.3197">*</text></g><!--link Listening to apoint16--><g id="link_Listening_apoint16"><path d="M312.945,790.395 C377.475,790.395 442.005,790.395 506.535,790.395 " fill="none" id="Listening-apoint16" style="stroke:#181818;stroke-width:1.5;stroke-dasharray:7.0,7.0;"/></g><!--link Playlist to Episode--><g id="link_Playlist_Episode"><path codeLine="75" d="M828.18,988.665 C803.97,922.83 749.97,781.26 693,667.005 C683.7,648.36 672.945,628.845 662.28,610.44 " fill="none" id="Playlist-Episode" style="stroke:#181818;stroke-width:1.5;"/><polygon fill="#000000" points="775.4874,783.6263,776.9002,797.822,784.9744,794.2804,775.4874,783.6263" style="stroke:#000000;stroke-width:1.5;"/><text fill="#000000" font-family="sans-serif" font-size="19.5" lengthAdjust="spacing" textLength="27" x="792" y="797.2453">list</text><text fill="#000000" font-family="sans-serif" font-size="19.5" lengthAdjust="spacing" textLength="10.5" x="813.1536" y="972.1922">*</text><text fill="#000000" font-family="sans-serif" font-size="19.5" lengthAdjust="spacing" textLength="10.5" x="657.3335" y="639.9691">*</text></g><!--link Comment to User--><g id="link_Comment_User"><path codeLine="77" d="M446.895,308.76 C443.175,394.62 438.405,555.63 447,692.505 C452.34,777.42 465.24,873.81 475.35,940.95 " fill="none" id="Comment-User" style="stroke:#181818;stroke-width:1.5;"/><polygon fill="#000000" points="454.1628,672.3622,450.3689,686.1143,459.1768,685.7179,454.1628,672.3622" style="stroke:#000000;stroke-width:1.5;"/><text fill="#000000" font-family="sans-serif" font-size="19.5" lengthAdjust="spacing" textLength="42" x="468" y="686.6053">post</text><text fill="#000000" font-family="sans-serif" font-size="19.5" lengthAdjust="spacing" textLength="10.5" x="435.0634" y="338.6731">*</text><text fill="#000000" font-family="sans-serif" font-size="19.5" lengthAdjust="spacing" textLength="12" x="460.7362" y="924.0151">1</text></g><!--link Comment to Episode--><g id="link_Comment_Episode"><path codeLine="79" d="M485.685,308.97 C507.375,346.365 535.41,394.665 559.275,435.765 " fill="none" id="Comment-Episode" style="stroke:#181818;stroke-width:1.5;"/><polygon fill="#000000" points="527.2352,359.748,530.233,373.6953,537.8585,369.2695,527.2352,359.748" style="stroke:#000000;stroke-width:1.5;"/><text fill="#000000" font-family="sans-serif" font-size="19.5" lengthAdjust="spacing" textLength="34.5" x="544.5" y="372.9853">has</text><text fill="#000000" font-family="sans-serif" font-size="19.5" lengthAdjust="spacing" textLength="10.5" x="479.8454" y="338.452">*</text><text fill="#000000" font-family="sans-serif" font-size="19.5" lengthAdjust="spacing" textLength="12" x="527.7523" y="419.3812">1</text></g><!--link User to Badge--><g id="link_User_Badge"><path codeLine="80" d="M489,1113.285 C489,1151.28 489,1196.04 489,1234.185 " fill="none" id="User-Badge" style="stroke:#181818;stroke-width:1.5;"/><polygon fill="#000000" points="496.5,1184.6496,500.9084,1171.082,492.0916,1171.082,496.5,1184.6496" style="stroke:#000000;stroke-width:1.5;"/><text fill="#000000" font-family="sans-serif" font-size="19.5" lengthAdjust="spacing" textLength="60" x="510" y="1183.9003">obtain</text><text fill="#000000" font-family="sans-serif" font-size="19.5" lengthAdjust="spacing" textLength="10.5" x="477.6937" y="1144.4195">*</text><text fill="#000000" font-family="sans-serif" font-size="19.5" lengthAdjust="spacing" textLength="10.5" x="477.893" y="1218.3846">*</text></g><!--link Comment to Comment--><g id="link_Comment_Comment"><path codeLine="81" d="M506.115,226.26 C533.61,223.68 558,230.265 558,246 C558,261.735 533.61,268.305 506.115,265.725 " fill="none" id="Comment-Comment" style="stroke:#181818;stroke-width:1.5;"/><polygon fill="#000000" points="564.7993,253.5668,570.456,240.4704,561.6778,239.6467,564.7993,253.5668" style="stroke:#000000;stroke-width:1.5;"/><text fill="#000000" font-family="sans-serif" font-size="19.5" lengthAdjust="spacing" textLength="78" x="586.5" y="252.8503">respond</text><text fill="#000000" font-family="sans-serif" font-size="19.5" lengthAdjust="spacing" textLength="10.5" x="517.4292" y="216.1667">*</text><text fill="#000000" font-family="sans-serif" font-size="19.5" lengthAdjust="spacing" textLength="12" x="517.5675" y="262.908">1</text></g><!--link Episode to apoint35--><g id="link_Episode_apoint35"><path d="M613.875,610.305 C617.88,680.895 623.025,771.66 623.88,786.735 " fill="none" id="Episode-apoint35" style="stroke:#181818;stroke-width:1.5;"/><text fill="#000000" font-family="sans-serif" font-size="19.5" lengthAdjust="spacing" textLength="60" x="619.5" y="686.6053">queue</text><text fill="#000000" font-family="sans-serif" font-size="19.5" lengthAdjust="spacing" textLength="10.5" x="603.3316" y="639.8185">*</text></g><!--link apoint35 to User--><g id="link_apoint35_User"><path d="M622.83,793.92 C615.315,806.94 572.835,880.455 537.72,941.22 " fill="none" id="apoint35-User" style="stroke:#181818;stroke-width:1.5;"/><text fill="#000000" font-family="sans-serif" font-size="19.5" lengthAdjust="spacing" textLength="10.5" x="532.6935" y="924.3197">*</text></g><!--link apoint35 to QueuedEpisode--><g id="link_apoint35_QueuedEpisode"><path d="M625.815,787.56 C635.55,772.665 683.31,703.275 743.25,679.755 C833.64,644.28 940.575,707.28 1000.425,751.86 " fill="none" id="apoint35-QueuedEpisode" style="stroke:#181818;stroke-width:1.5;stroke-dasharray:7.0,7.0;"/></g><rect fill="#FFFFFF" height="25.6992" style="stroke:#000000;stroke-width:0.75;" width="22.5" x="453.6" y="928.1004"/><text fill="#000000" font-family="sans-serif" font-size="19.5" lengthAdjust="spacing" textLength="16.5" x="456.6" y="947.7007">id</text><rect fill="#FFFFFF" height="25.6992" style="stroke:#000000;stroke-width:0.75;" width="61.5" x="585.39" y="991.8654"/><text fill="#000000" font-family="sans-serif" font-size="19.5" lengthAdjust="spacing" textLength="55.5" x="588.39" y="1011.4657">name</text><!--SRC=[TLHDZzj633rxVWNXYvCqAyGRf0UXw2BTv10WwAPjsaiS66CDBR4PpIZpiRjkaFzUpemaQuC4y44ooSVt7advHcg4RVL2TAGG6dADHh41_udC89tiGPF1S1eGh0kT_NveiFgKNiGvTgJxwmpsLXvGtzoYqt8OoBGGN5mcDbfw_p84HuSOy4rZpL_q7yApGgX7Rggy46BpsWGAX5vWUZZ1tnuTV16h8paVZEnHh1XgVFhYWmpKV0Ni9Mcn6hZ9dNLAh1osv8FZg3Lx9GEAhsA2V6TLmn09bT_PY9L2tpWQKl82r7c_Fo8o6lMovJGPcQOJAnp8MwxPDpQQ00leroNo8sWL2wF4JwFqgFOoB3hAgCZkezCBoBUi0qsob447Prk7tcSCFKKAZqNDDGjkhJkbaXayMxPmGSjJGaWvcsZeSqJm63Nsd00-Ej0I6jiVo4WMPNBzJsm1HbSzr7K6_IDYHBLmWOp2-qN2RrArkAHL1ZbOCi5_urPQEh7YLL6KntWhTLmgkBPzvifeneQIoeQmeTF0Dt-YpeRxZWOlyYvzI1q_mdgxlbW_MSysrD0uJ6NJTd02s0kDnv3pHarYy_xcrKqDqZbx1ueSDWaVoBDNBht1rHdYIUanZODxbAUq-h-8oQOfBT6heKmLVXNdmLVmQCnzcfCUYtbuK-qOB-LS_7tipsayt3aRaHoOvNqWzN4sjEPJpoYZMD_Pg1NS8R15Mfz0AWMXOysa-9V6SIH6b4Q1v3Jv2SOHNLs92JGnkLXl0MQotAUJVgQJuqobh4WDzX0a9IDcX2NXCrU-Xu5tX754MWDmr7O1xF7XCjPm_QREDl2afE5CRdwBi3CIMhfbnyUhvdzwwv3rIGFMy0Fr24naPqA7v60-ks9dLReUR0Ys_q7RznrEfvItPMU-pTkmb-bK4f_aelUs8LuM1J6PmrQN4wt4ewJXwUJXOrwE1q25pNhiwXAm3D3B-wnbPyxisJt-Gl07dJ_IRR9X6DTsCgACC_Mlrim8Vd- -tCaglUTcmGv9zpYHelXbqfi7D9hjSE352HOeUDJ7KMQAdaEM3NPJeMUJ3F_FplFVuFbg9sRLEEdrEsV_vPEhqoVz3Wyxym-FbmskuN9dNh5zzUNFrNPRNJwxV5ualFWV]--></g></svg>